<svg width="6" height="6" viewBox="0 0 6 6" fill="none" xmlns="http://www.w3.org/2000/svg">
<path d="M2.68869 0.723389C1.99401 0.723482 1.32782 0.999512 0.836651 1.49076C0.34548 1.98201 0.069559 2.64825 0.0695801 3.34293C0.069559 4.03761 0.34548 4.70384 0.836651 5.1951C1.32782 5.68635 1.99401 5.96238 2.68869 5.96247C3.0327 5.96248 3.37334 5.89473 3.69116 5.76309C4.00898 5.63145 4.29776 5.4385 4.54101 5.19525C4.78426 4.952 4.97721 4.66322 5.10885 4.3454C5.24049 4.02757 5.30824 3.68694 5.30823 3.34293C5.30725 3.13879 5.28242 2.93547 5.23422 2.7371C4.97866 2.98323 4.63769 3.12079 4.28288 3.12091C3.91903 3.12092 3.57007 2.97642 3.31275 2.71918C3.05542 2.46194 2.91081 2.11302 2.91072 1.74917C2.9113 1.39412 3.04949 1.05312 3.29625 0.797827C3.09733 0.749356 2.89342 0.724373 2.68869 0.723389Z" fill="#D9D9D9"/>
</svg>
